<?xml version="1.0" encoding="UTF-8"?>
<!DOCTYPE svg PUBLIC "-//W3C//DTD SVG 1.1//EN" "http://www.w3.org/Graphics/SVG/1.1/DTD/svg11.dtd">
<!-- Creator: CorelDRAW X7 -->
<svg xmlns="http://www.w3.org/2000/svg" xml:space="preserve" width="0.661413in" height="0.500535in" version="1.1" style="shape-rendering:geometricPrecision; text-rendering:geometricPrecision; image-rendering:optimizeQuality; fill-rule:evenodd; clip-rule:evenodd"
viewBox="0 0 72 55"
 xmlns:xlink="http://www.w3.org/1999/xlink">
 <defs>
  <style type="text/css">
   <![CDATA[
    .str0 {stroke:#28166F;stroke-width:0.360845}
    .fil51 {fill:none}
    .fil49 {fill:#DA251D}
    .fil48 {fill:#DC351B}
    .fil47 {fill:#DE421A}
    .fil46 {fill:#DF4C18}
    .fil45 {fill:#E15616}
    .fil44 {fill:#E35F13}
    .fil43 {fill:#E46813}
    .fil42 {fill:#E67115}
    .fil41 {fill:#E77817}
    .fil40 {fill:#E9811A}
    .fil39 {fill:#EB8A1B}
    .fil38 {fill:#EB8C1B}
    .fil37 {fill:#EC8E1C}
    .fil36 {fill:#EC901B}
    .fil35 {fill:#ED9319}
    .fil34 {fill:#ED9517}
    .fil33 {fill:#EE9715}
    .fil32 {fill:#EE9913}
    .fil31 {fill:#EF9C0F}
    .fil30 {fill:#EF9E06}
    .fil29 {fill:#F0A100}
    .fil28 {fill:#F0A300}
    .fil27 {fill:#F1A500}
    .fil26 {fill:#F1A700}
    .fil25 {fill:#F2AB00}
    .fil24 {fill:#F3AD00}
    .fil23 {fill:#F3AF00}
    .fil22 {fill:#F4B200}
    .fil21 {fill:#F5B400}
    .fil20 {fill:#F5B700}
    .fil19 {fill:#F6BA00}
    .fil18 {fill:#F7BD00}
    .fil17 {fill:#F7C000}
    .fil16 {fill:#F8C200}
    .fil15 {fill:#F8C500}
    .fil14 {fill:#F9C900}
    .fil13 {fill:#FACB00}
    .fil12 {fill:#FACE00}
    .fil11 {fill:#FBD100}
    .fil10 {fill:#FBD400}
    .fil9 {fill:#FCD800}
    .fil8 {fill:#FCDB00}
    .fil7 {fill:#FDDF00}
    .fil6 {fill:#FEE200}
    .fil5 {fill:#FEE500}
    .fil4 {fill:#FEE800}
    .fil3 {fill:#FFEC00}
    .fil2 {fill:#FFEF00}
    .fil1 {fill:#FFF200}
    .fil0 {fill:#FFF500}
    .fil50 {fill:white}
   ]]>
  </style>
 </defs>
 <g id="Layer_x0020_1">
  <metadata id="CorelCorpID_0Corel-Layer"/>
  <g id="_744005840">
   <polygon class="fil0" points="1,22 1,36 1,36 1,35 1,35 1,34 0,34 0,34 0,33 0,33 0,32 0,32 0,32 0,31 0,30 0,30 0,30 0,29 0,29 0,28 0,28 0,27 0,27 0,26 0,26 0,25 0,25 0,25 0,24 1,24 1,23 1,23 1,22 "/>
   <polygon class="fil0" points="2,19 2,39 2,38 1,38 1,37 1,37 1,36 1,35 1,35 0,34 0,34 0,33 0,32 0,32 0,31 0,30 0,30 0,29 0,29 0,28 0,27 0,26 0,26 0,25 0,25 0,24 1,23 1,23 1,22 1,21 1,21 1,20 2,20 "/>
   <polygon class="fil1" points="1,36 1,22 1,21 1,21 2,20 2,20 2,19 3,18 3,18 3,17 3,41 3,41 3,40 2,39 2,39 2,38 1,38 1,37 "/>
   <polygon class="fil2" points="2,39 2,19 2,19 3,18 3,18 3,17 3,17 4,16 4,16 4,15 4,43 4,42 4,42 3,42 3,41 3,41 3,40 2,39 "/>
   <polygon class="fil3" points="3,41 3,17 3,17 4,16 4,16 4,16 4,15 4,15 5,14 5,14 5,44 5,44 4,43 4,43 4,43 4,42 4,42 3,42 "/>
   <polygon class="fil4" points="4,43 4,15 4,15 4,15 5,14 5,14 5,13 5,13 6,13 6,13 6,46 6,45 5,45 5,45 5,44 5,44 4,43 4,43 "/>
   <polygon class="fil5" points="5,44 5,14 5,13 5,13 6,13 6,13 6,12 6,12 7,12 7,12 7,47 7,46 6,46 6,46 6,46 6,45 5,45 5,45 "/>
   <polygon class="fil6" points="6,46 6,13 6,12 6,12 7,12 7,12 7,11 8,11 8,11 8,11 8,48 8,47 8,47 7,47 7,47 7,46 6,46 6,46 "/>
   <polygon class="fil7" points="7,47 7,12 7,11 8,11 8,11 8,11 8,10 8,10 9,10 9,10 9,48 9,48 8,48 8,48 8,48 8,47 8,47 7,47 "/>
   <polygon class="fil8" points="8,48 8,11 8,10 8,10 9,10 9,10 9,10 9,9 10,9 10,9 10,49 10,49 9,49 9,49 9,48 9,48 8,48 8,48 "/>
   <polygon class="fil9" points="9,48 9,10 9,10 9,9 10,9 10,9 10,9 10,8 11,8 11,8 11,50 11,50 10,50 10,50 10,49 10,49 9,49 9,49 "/>
   <polygon class="fil10" points="10,49 10,9 10,9 10,8 11,8 11,8 11,8 12,8 12,8 12,7 12,51 12,51 12,50 11,50 11,50 11,50 10,50 10,50 "/>
   <polygon class="fil11" points="11,50 11,8 11,8 12,8 12,8 12,7 12,7 12,7 13,7 13,7 13,51 13,51 12,51 12,51 12,51 12,51 12,50 11,50 "/>
   <polygon class="fil12" points="12,51 12,7 12,7 12,7 13,7 13,7 13,7 13,7 14,7 14,6 14,52 14,52 13,52 13,51 13,51 13,51 12,51 12,51 "/>
   <polygon class="fil13" points="13,51 13,7 13,7 13,7 14,7 14,6 14,6 14,6 15,6 15,6 15,52 15,52 14,52 14,52 14,52 14,52 13,52 13,51 "/>
   <polygon class="fil14" points="14,52 14,6 14,6 14,6 15,6 15,6 15,6 16,6 16,6 16,6 16,53 16,53 16,52 15,52 15,52 15,52 14,52 14,52 "/>
   <polygon class="fil15" points="15,52 15,6 15,6 16,6 16,6 16,6 16,6 17,5 17,5 17,5 17,53 17,53 17,53 16,53 16,53 16,53 16,52 15,52 "/>
   <polygon class="fil16" points="16,53 16,6 16,6 17,5 17,5 17,5 17,5 17,5 18,5 18,5 18,54 18,54 17,53 17,53 17,53 17,53 17,53 16,53 "/>
   <polygon class="fil17" points="17,53 17,5 17,5 17,5 18,5 18,5 18,5 18,4 19,4 19,4 19,54 19,54 18,54 18,54 18,54 18,54 17,53 17,53 "/>
   <polygon class="fil18" points="18,54 18,5 18,5 18,4 19,4 19,4 19,4 19,4 20,4 20,4 20,54 20,54 19,54 19,54 19,54 19,54 18,54 18,54 "/>
   <polygon class="fil19" points="19,54 19,4 19,4 19,4 20,4 20,4 20,4 21,4 21,4 21,4 21,54 21,54 21,54 20,54 20,54 20,54 19,54 19,54 "/>
   <polygon class="fil20" points="20,54 20,4 20,4 21,4 21,4 21,4 21,4 21,4 22,4 22,4 22,54 22,54 21,54 21,54 21,54 21,54 21,54 20,54 "/>
   <polygon class="fil21" points="21,54 21,4 21,4 21,4 22,4 22,4 22,4 22,4 23,4 23,4 23,54 23,54 22,54 22,54 22,54 22,54 21,54 21,54 "/>
   <polygon class="fil22" points="22,54 22,4 22,4 22,4 23,4 23,4 23,4 23,4 24,4 24,4 24,55 24,54 23,54 23,54 23,54 23,54 22,54 22,54 "/>
   <polygon class="fil23" points="23,54 23,4 23,4 23,4 24,4 24,4 24,4 25,4 25,4 25,4 25,55 25,55 25,55 24,55 24,55 24,54 23,54 23,54 "/>
   <polygon class="fil24" points="24,55 24,4 24,4 25,4 25,4 25,4 25,4 25,4 26,4 26,4 26,55 26,55 25,55 25,55 25,55 25,55 25,55 24,55 "/>
   <polygon class="fil25" points="25,55 25,4 25,4 25,4 26,4 26,4 26,4 26,4 27,4 27,4 27,54 27,54 26,54 26,54 26,55 26,55 25,55 25,55 "/>
   <polygon class="fil26" points="26,55 26,4 26,4 26,4 27,4 27,4 27,4 27,4 28,4 28,4 28,54 28,54 27,54 27,54 27,54 27,54 26,54 26,54 "/>
   <polygon class="fil27" points="27,54 27,4 27,4 27,4 28,4 28,4 28,4 29,4 29,4 29,4 29,54 29,54 29,54 28,54 28,54 28,54 27,54 27,54 "/>
   <polygon class="fil28" points="28,54 28,4 28,4 29,4 29,4 29,4 29,4 29,4 30,4 30,4 30,54 30,54 29,54 29,54 29,54 29,54 29,54 28,54 "/>
   <polygon class="fil29" points="29,54 29,4 29,4 29,4 30,4 30,4 30,4 30,4 31,4 31,4 31,54 31,54 30,54 30,54 30,54 30,54 29,54 29,54 "/>
   <polygon class="fil30" points="30,54 30,4 30,4 30,4 31,4 31,4 31,4 31,4 32,5 32,5 32,54 32,54 31,54 31,54 31,54 31,54 30,54 30,54 "/>
   <polygon class="fil31" points="31,54 31,4 31,4 31,4 32,5 32,5 32,5 32,5 32,5 33,5 33,53 32,53 32,53 32,54 32,54 32,54 31,54 31,54 "/>
   <polygon class="fil32" points="32,54 32,5 32,5 32,5 33,5 33,5 33,5 34,5 34,6 34,6 34,53 34,53 34,53 33,53 33,53 33,53 32,53 32,54 "/>
   <polygon class="fil33" points="33,53 33,5 33,5 34,5 34,6 34,6 34,6 34,6 35,6 35,6 35,52 35,52 34,52 34,53 34,53 34,53 34,53 33,53 "/>
   <polygon class="fil34" points="34,53 34,6 34,6 34,6 35,6 35,6 35,6 35,6 36,6 36,6 36,52 36,52 35,52 35,52 35,52 35,52 34,52 34,53 "/>
   <polygon class="fil35" points="35,52 35,6 35,6 35,6 36,6 36,6 36,7 36,7 37,7 37,7 37,51 37,51 36,52 36,52 36,52 36,52 35,52 35,52 "/>
   <polygon class="fil36" points="36,52 36,6 36,7 36,7 37,7 37,7 37,7 38,7 38,7 38,7 38,51 38,51 38,51 37,51 37,51 37,51 36,52 36,52 "/>
   <polygon class="fil37" points="37,51 37,7 37,7 38,7 38,7 38,7 38,8 38,8 39,8 39,8 39,50 39,50 38,50 38,51 38,51 38,51 38,51 37,51 "/>
   <polygon class="fil38" points="38,51 38,7 38,8 38,8 39,8 39,8 39,8 39,8 40,9 40,9 40,49 40,50 39,50 39,50 39,50 39,50 38,50 38,51 "/>
   <polygon class="fil39" points="39,50 39,8 39,8 39,8 40,9 40,9 40,9 40,9 41,10 41,10 41,48 41,49 40,49 40,49 40,49 40,50 39,50 39,50 "/>
   <polygon class="fil40" points="40,49 40,9 40,9 40,9 41,10 41,10 41,10 41,10 41,10 42,11 42,48 41,48 41,48 41,48 41,48 41,49 40,49 40,49 "/>
   <polygon class="fil41" points="41,48 41,10 41,10 41,10 41,10 42,11 42,11 42,11 43,11 43,12 43,47 43,47 42,47 42,47 42,48 41,48 41,48 41,48 "/>
   <polygon class="fil42" points="42,48 42,11 42,11 42,11 43,11 43,12 43,12 43,12 44,12 44,13 44,46 44,46 43,46 43,46 43,47 43,47 42,47 42,47 "/>
   <polygon class="fil43" points="43,47 43,12 43,12 43,12 44,12 44,13 44,13 44,13 45,13 45,14 45,44 45,45 44,45 44,45 44,46 44,46 43,46 43,46 "/>
   <polygon class="fil44" points="44,46 44,13 44,13 44,13 45,13 45,14 45,14 45,15 45,15 46,15 46,43 45,43 45,43 45,44 45,44 45,45 44,45 44,45 "/>
   <polygon class="fil45" points="45,44 45,14 45,14 45,15 46,15 46,16 46,16 47,16 47,17 47,17 47,41 47,42 47,42 46,42 46,43 46,43 45,43 45,44 "/>
   <polygon class="fil46" points="46,43 46,15 46,16 47,16 47,17 47,17 47,18 47,18 48,19 48,19 48,39 48,39 47,40 47,41 47,41 47,42 47,42 46,42 "/>
   <polygon class="fil47" points="47,41 47,17 47,18 47,18 48,19 48,20 48,20 48,21 49,21 49,22 49,36 49,37 48,38 48,38 48,39 48,39 47,40 47,41 "/>
   <polygon class="fil48" points="48,39 48,19 48,20 48,20 48,21 49,21 49,22 49,23 49,23 49,24 49,25 49,25 50,26 50,26 50,27 50,28 50,29 50,29 50,30 50,30 50,31 50,32 50,32 49,33 49,34 49,34 49,35 49,35 49,36 49,37 48,37 48,38 48,38 "/>
   <polygon class="fil49" points="49,36 49,22 49,22 49,23 49,23 49,24 49,24 49,25 49,25 49,25 50,26 50,26 50,27 50,27 50,28 50,28 50,29 50,29 50,30 50,30 50,30 50,31 50,32 50,32 50,32 49,33 49,33 49,34 49,34 49,34 49,35 49,35 49,36 "/>
   <polygon class="fil50" points="20,0 19,0 19,1 18,1 18,2 18,2 17,3 17,3 17,4 16,4 16,5 16,5 16,6 15,7 15,8 14,8 14,8 14,8 14,8 14,9 14,9 14,9 14,8 13,8 13,8 13,8 13,7 13,6 13,6 13,4 13,3 13,4 13,5 12,6 12,7 12,8 12,9 13,10 13,11 13,12 13,13 14,14 14,15 14,16 15,17 15,18 16,19 16,20 17,21 17,22 18,23 19,24 19,25 20,26 21,27 21,28 22,29 22,30 23,30 23,31 24,32 25,33 25,33 25,34 26,34 26,34 26,34 26,35 26,35 26,35 26,35 26,35 26,35 26,35 26,35 26,35 26,36 26,36 26,36 26,36 26,36 26,36 26,37 26,37 25,37 25,37 25,37 25,37 25,37 24,37 24,37 26,37 29,38 31,38 33,38 35,38 38,38 40,38 43,38 45,38 47,38 50,38 52,38 54,38 57,38 59,38 62,38 62,38 63,38 64,38 64,38 65,38 66,38 67,38 69,38 69,38 70,38 71,38 71,38 72,38 72,38 72,38 72,38 72,38 72,38 72,38 71,38 56,36 55,36 54,36 52,36 51,36 50,36 49,35 48,35 47,35 46,35 45,35 44,35 43,35 41,34 40,34 40,34 39,34 38,33 36,33 35,32 35,32 34,32 33,31 32,30 31,30 30,29 30,29 29,28 29,27 28,26 27,26 27,25 26,24 26,23 25,22 24,22 24,21 23,20 23,19 22,19 22,17 21,17 21,16 20,15 20,14 19,13 19,12 19,12 19,11 19,10 18,9 18,8 18,7 18,6 18,6 18,4 19,4 19,3 19,2 19,1 "/>
   <polygon class="fil51 str0" points="20,0 19,0 19,1 18,1 18,2 18,2 17,3 17,3 17,4 16,4 16,5 16,5 16,6 15,7 15,8 14,8 14,8 14,8 14,8 14,9 14,9 14,9 14,8 13,8 13,8 13,8 13,7 13,6 13,6 13,4 13,3 13,4 13,5 12,6 12,7 12,8 12,9 13,10 13,11 13,12 13,13 14,14 14,15 14,16 15,17 15,18 16,19 16,20 17,21 17,22 18,23 19,24 19,25 20,26 21,27 21,28 22,29 22,30 23,30 23,31 24,32 25,33 25,33 25,34 26,34 26,34 26,34 26,35 26,35 26,35 26,35 26,35 26,35 26,35 26,35 26,35 26,36 26,36 26,36 26,36 26,36 26,36 26,37 26,37 25,37 25,37 25,37 25,37 25,37 24,37 24,37 26,37 29,38 31,38 33,38 35,38 38,38 40,38 43,38 45,38 47,38 50,38 52,38 54,38 57,38 59,38 62,38 62,38 63,38 64,38 64,38 65,38 66,38 67,38 69,38 69,38 70,38 71,38 71,38 72,38 72,38 72,38 72,38 72,38 72,38 72,38 71,38 56,36 55,36 54,36 52,36 51,36 50,36 49,35 48,35 47,35 46,35 45,35 44,35 43,35 41,34 40,34 40,34 39,34 38,33 36,33 35,32 35,32 34,32 33,31 32,30 31,30 30,29 30,29 29,28 29,27 28,26 27,26 27,25 26,24 26,23 25,22 24,22 24,21 23,20 23,19 22,19 22,17 21,17 21,16 20,15 20,14 19,13 19,12 19,12 19,11 19,10 18,9 18,8 18,7 18,6 18,6 18,4 19,4 19,3 19,2 19,1 "/>
  </g>
 </g>
</svg>
